Coordinates
version=1
nRows=6
nColumns=107
inDegrees=yes

Units are S.I. units (second, meters, Newtons, ...)
If the header above contains a line with 'inDegrees', this indicates whether rotational values are in degrees (yes) or radians (no).

endheader
time	sternoclavicular_r2	sternoclavicular_r3	unrotscap_r3	unrotscap_r2	acromioclavicular_r2	acromioclavicular_r3	acromioclavicular_r1	unrothum_r1	unrothum_r3	unrothum_r2	elv_angle	shoulder_elv	shoulder1_r2	shoulder_rot	elbow_flexion	pro_sup	deviation	flexion	proximal_distal_r1	proximal_distal_r3	cmc_flexion	cmc_abduction	mp_flexion	ip_flexion	mcp2_flexion	mcp2_abduction	pm2_flexion	md2_flexion	mcp3_flexion	mcp3_abduction	pm3_flexion	md3_flexion	mcp4_flexion	mcp4_abduction	pm4_flexion	md4_flexion	mcp5_flexion	mcp5_abduction	pm5_flexion	md5_flexion	bicpt_tx	bicpt_ty	bicpt_tz	bicpt2_tx	bicpt2_ty	bicpt2_tz	ptpt_tx	ptpt_ty	ptpt_tz	FCUpt_tx	FCUpt_ty	FCUpt_tz	EDCpt_tx	EDCpt_ty	EDCpt_tz	APLpt_tx	APLpt_ty	APLpt_tz	FPLpt_tx	FPLpt_ty	FPLpt_tz	FPLpt2_tx	FPLpt2_ty	FPLpt2_tz	PEC1pt2_tx	PEC1pt2_ty	PEC1pt2_tz	PEC1pt3_tx	PEC1pt3_ty	PEC1pt3_tz	PEC2pt2_tx	PEC2pt2_ty	PEC2pt2_tz	PEC2pt3_tx	PEC2pt3_ty	PEC2pt3_tz	PEC3pt2_tx	PEC3pt2_ty	PEC3pt2_tz	PEC3pt3_tx	PEC3pt3_ty	PEC3pt3_tz	DELT2pt2a_tx	DELT2pt2a_ty	DELT2pt2a_tz	DELT2pt2_tx	DELT2pt2_ty	DELT2pt2_tz	LAT1pt2_tx	LAT1pt2_ty	LAT1pt2_tz	LAT1pt3_tx	LAT1pt3_ty	LAT1pt3_tz	LAT2pt2_tx	LAT2pt2_ty	LAT2pt2_tz	LAT2pt3_tx	LAT2pt3_ty	LAT2pt3_tz	LAT3pt2_tx	LAT3pt2_ty	LAT3pt2_tz	LAT3pt3_tx	LAT3pt3_ty	LAT3pt3_tz
      0.80000000	     -0.32749016	      0.13870937	     -0.13870937	      0.32749016	     -0.06631010	      0.53589487	      0.24088105	     -0.24088105	     -0.53589487	      0.06631010	     98.62931897	     77.53620615	     -1.72140635	    -18.10239453	     28.42485860	     36.30158546	      0.13543222	     -0.41537965	      0.16878818	     -0.20768982	     20.18808518	    -23.20896100	     -5.52258385	     -3.09094511	      8.71922972	      3.84955947	     18.54788120	    -23.06429179	      8.33391443	      1.25370251	      8.14456442	     12.50700627	      0.83908677	     -4.11621036	     13.06964937	     25.97446278	     -8.44377745	    -11.75355310	     20.34199353	      5.10360048	      0.00084021	     -0.03085792	     -0.00482477	      0.01655188	     -0.01792175	     -0.00785527	      0.00486772	     -0.06663441	     -0.00297429	      0.00740999	     -0.18357006	     -0.00035502	     -0.00435618	      0.00123190	      0.00016927	      0.00028051	      0.00011220	      0.00056102	      0.00035905	      0.00107716	      0.00060590	      0.00001136	     -0.00027830	     -0.00033397	      0.00254147	      0.00891667	      0.00620290	     -0.00831361	      0.02007328	     -0.01903946	      0.00254147	      0.00891667	      0.00620290	      0.00055998	      0.01860871	     -0.00977819	      0.00399943	      0.00495845	      0.01609213	      0.00000000	      0.00804210	      0.00000000	     -0.00727979	     -0.03364213	     -0.00663251	      0.01265719	     -0.00037438	     -0.00266826	     -0.00090459	      0.01516265	     -0.00620290	      0.00249839	      0.02188246	     -0.01809180	     -0.00607367	      0.01313809	     -0.00555677	     -0.01266426	      0.02774075	     -0.03105758	     -0.02377779	      0.01468882	     -0.00745210	     -0.01576571	      0.03204833	     -0.03881121
      0.83333333	     -0.32885738	      0.13928847	     -0.13928847	      0.32885738	     -0.06658693	      0.53813215	      0.24188670	     -0.24188670	     -0.53813215	      0.06658693	     98.36283481	     77.85990838	     -1.71675533	    -16.56347560	     28.38927884	     34.62795297	      0.14078589	     -0.40790883	      0.17484341	     -0.20395442	     19.95515011	    -23.20825554	     -5.23654695	     -3.45824196	      8.26932530	      3.74531057	     18.34672484	    -23.94799395	      7.91921664	      1.38811598	      7.99432574	     12.61618246	      0.18833828	     -4.13293551	     12.89456893	     26.45611529	     -8.95729541	    -11.66090320	     20.12704627	      5.14272304	      0.00083903	     -0.03085385	     -0.00482411	      0.01653136	     -0.01791209	     -0.00802327	      0.00499139	     -0.06655444	     -0.00283947	      0.00724384	     -0.18360272	     -0.00033742	     -0.00415534	      0.00116617	      0.00017717	      0.00027801	      0.00011120	      0.00055601	      0.00035585	      0.00106754	      0.00060049	      0.00001193	     -0.00027766	     -0.00033319	      0.00255208	      0.00895390	      0.00622880	     -0.00834832	      0.02015708	     -0.01911895	      0.00255208	      0.00895390	      0.00622880	      0.00056232	      0.01868639	     -0.00981901	      0.00401150	      0.00497915	      0.01612091	      0.00000000	      0.00810989	      0.00000000	     -0.00731019	     -0.03378258	     -0.00668877	      0.01171424	     -0.00032881	     -0.00220094	     -0.00090837	      0.01522595	     -0.00622880	      0.00250882	      0.02197381	     -0.01816733	     -0.00609903	      0.01319294	     -0.00557996	     -0.01271713	      0.02785657	     -0.03118725	     -0.02387706	      0.01475014	     -0.00748321	     -0.01583153	      0.03218212	     -0.03897324
      0.86666667	     -0.32891526	      0.13931298	     -0.13931298	      0.32891526	     -0.06659865	      0.53822686	      0.24192927	     -0.24192927	     -0.53822686	      0.06659865	     98.36447767	     77.87361115	     -1.71678400	    -16.56792306	     28.39414255	     34.62580653	      0.14080802	     -0.40794174	      0.17486784	     -0.20397087	     19.95552654	    -23.20840378	     -5.23657991	     -3.45792940	      8.26630464	      3.74610607	     18.34596700	    -23.94819164	      7.91601027	      1.38783287	      7.99406441	     12.61602642	      0.18866348	     -4.13290688	     12.89480093	     26.45590203	     -8.95680592	    -11.66149775	     20.12689551	      5.14270029	      0.00083919	     -0.03085440	     -0.00482420	      0.01653133	     -0.01791341	     -0.00802349	      0.00499154	     -0.06655434	     -0.00283929	      0.00724363	     -0.18360276	     -0.00033739	     -0.00415509	      0.00116608	      0.00017717	      0.00027802	      0.00011121	      0.00055603	      0.00035586	      0.00106758	      0.00060051	      0.00001193	     -0.00027765	     -0.00033318	      0.00255253	      0.00895547	      0.00622989	     -0.00834979	      0.02016063	     -0.01912231	      0.00255253	      0.00895547	      0.00622989	      0.00056242	      0.01868968	     -0.00982074	      0.00401201	      0.00498002	      0.01612212	      0.00000000	      0.00811277	      0.00000000	     -0.00731147	     -0.03378852	     -0.00669116	      0.01171699	     -0.00032894	     -0.00220226	     -0.00090853	      0.01522863	     -0.00622989	      0.00250926	      0.02197768	     -0.01817052	     -0.00610010	      0.01319526	     -0.00558095	     -0.01271937	      0.02786147	     -0.03119273	     -0.02388126	      0.01475274	     -0.00748453	     -0.01583431	      0.03218779	     -0.03898010
      0.90000000	     -0.32727031	      0.13861625	     -0.13861625	      0.32727031	     -0.06626558	      0.53553511	      0.24071934	     -0.24071934	     -0.53553511	      0.06626558	     98.67008404	     77.48415381	     -1.72211784	    -18.34765256	     28.45839600	     36.20859410	      0.13649347	     -0.40304688	      0.16999168	     -0.20152344	     20.37829837	    -23.26665015	     -5.06779313	     -3.92334569	      7.48014532	      4.23590967	     18.27004288	    -24.32715921	      7.21020193	      1.70744738	      7.54565540	     13.02033257	     -0.27006189	     -3.68711371	     12.78446229	     27.04327138	     -9.35235408	    -11.60142194	     20.39853100	      5.10090002	      0.00084132	     -0.03086177	     -0.00482539	      0.01655090	     -0.01793086	     -0.00786470	      0.00487459	     -0.06662996	     -0.00296680	      0.00740074	     -0.18357190	     -0.00035410	     -0.00434502	      0.00122823	      0.00016975	      0.00027633	      0.00011053	      0.00055267	      0.00035371	      0.00106112	      0.00059688	      0.00001089	     -0.00027878	     -0.00033453	      0.00253976	      0.00891069	      0.00619874	     -0.00830803	      0.02005980	     -0.01902668	      0.00253976	      0.00891069	      0.00619874	      0.00055961	      0.01859621	     -0.00977162	      0.00399748	      0.00495512	      0.01608747	      0.00000000	      0.00803123	      0.00000000	     -0.00727491	     -0.03361954	     -0.00662349	      0.01280455	     -0.00038174	     -0.00274637	     -0.00090398	      0.01515247	     -0.00619874	      0.00249671	      0.02186777	     -0.01807965	     -0.00606960	      0.01312927	     -0.00555304	     -0.01265576	      0.02772213	     -0.03103673	     -0.02376183	      0.01467895	     -0.00744709	     -0.01575512	      0.03202681	     -0.03878516
      0.93333333	     -0.32581777	      0.13800103	     -0.13800103	      0.32581777	     -0.06597147	      0.53315822	      0.23965095	     -0.23965095	     -0.53315822	      0.06597147	     98.95868611	     77.14025331	     -1.72715490	    -19.95785927	     28.39584432	     36.76301083	      0.10707116	     -0.45310737	      0.13592717	     -0.22655368	     20.72160046	    -23.21582861	     -7.43921489	      0.13288951	      7.53036484	      3.98247798	     17.09467202	    -22.70443582	      6.57293751	      1.57504799	      8.42920619	     11.96892129	     -0.87595625	     -4.06657489	     13.85364165	     23.54547747	     -9.71861685	    -11.65064759	     18.95221490	      5.14419593	      0.00083925	     -0.03085460	     -0.00482423	      0.01655638	     -0.01791387	     -0.00780824	      0.00483363	     -0.06665645	     -0.00301146	      0.00745596	     -0.18356091	     -0.00035950	     -0.00441155	      0.00125018	      0.00016682	      0.00029166	      0.00011666	      0.00058332	      0.00037332	      0.00111997	      0.00062998	      0.00001006	     -0.00027949	     -0.00033539	      0.00252849	      0.00887114	      0.00617123	     -0.00827116	      0.01997077	     -0.01894223	      0.00252849	      0.00887114	      0.00617123	      0.00055712	      0.01851368	     -0.00972825	      0.00398461	      0.00493313	      0.01605658	      0.00000000	      0.00795958	      0.00000000	     -0.00724262	     -0.03347033	     -0.00656403	      0.01375193	     -0.00043064	     -0.00328357	     -0.00089997	      0.01508522	     -0.00617123	      0.00248563	      0.02177071	     -0.01799941	     -0.00604266	      0.01307100	     -0.00552839	     -0.01259959	      0.02759909	     -0.03089898	     -0.02365636	      0.01461380	     -0.00741404	     -0.01568520	      0.03188466	     -0.03861301
      0.96666667	     -0.32365706	      0.13708585	     -0.13708585	      0.32365706	     -0.06553397	      0.52962250	      0.23806167	     -0.23806167	     -0.52962250	      0.06553397	     99.42165258	     76.62868541	     -1.73523519	    -22.64873025	     28.62786743	     40.01649022	      0.10719651	     -0.42136720	      0.13607521	     -0.21068360	     20.32630332	    -23.29136743	     -4.58787950	     -3.06974106	      6.83316401	      4.34624545	     18.71379505	    -24.07725789	      6.56137061	      1.82382638	      7.95414057	     13.03983722	     -1.12795676	     -3.61413435	     13.05810938	     26.74732111	    -10.39998761	    -11.47624660	     20.54842243	      5.08634164	      0.00084692	     -0.03088119	     -0.00482851	      0.01657444	     -0.01797690	     -0.00746827	      0.00459323	     -0.06681189	     -0.00327354	      0.00778190	     -0.18349472	     -0.00038654	     -0.00480197	      0.00138091	      0.00014630	      0.00028243	      0.00011297	      0.00056487	      0.00036151	      0.00108454	      0.00061006	      0.00001102	     -0.00027863	     -0.00033435	      0.00251172	      0.00881231	      0.00613030	     -0.00821630	      0.01983833	     -0.01881662	      0.00251172	      0.00881231	      0.00613030	      0.00055343	      0.01839090	     -0.00966374	      0.00396538	      0.00490041	      0.01601011	      0.00000000	      0.00785361	      0.00000000	     -0.00719459	     -0.03324836	     -0.00647607	      0.01525779	     -0.00051465	     -0.00427196	     -0.00089400	      0.01498518	     -0.00613030	      0.00246915	      0.02162634	     -0.01788004	     -0.00600259	      0.01298432	     -0.00549173	     -0.01251603	      0.02741606	     -0.03069407	     -0.02349948	      0.01451689	     -0.00736487	     -0.01558118	      0.03167322	     -0.03835695
